<?xml version="1.0" encoding="UTF-8" standalone="no"?>
<!DOCTYPE svg PUBLIC "-//W3C//DTD SVG 1.1//EN"
 "http://www.w3.org/Graphics/SVG/1.1/DTD/svg11.dtd">
<!-- Generated by graphviz version 5.0.0 (20220707.1540)
 -->
<!-- Title: StorageDiagram Pages: 1 -->
<svg width="2042pt" height="855pt"
 viewBox="0.00 0.00 2041.89 854.60" xmlns="http://www.w3.org/2000/svg" xmlns:xlink="http://www.w3.org/1999/xlink">
<g id="graph0" class="graph" transform="scale(1 1) rotate(0) translate(4 850.6)">
<title>StorageDiagram</title>
<polygon fill="white" stroke="transparent" points="-4,4 -4,-850.6 2037.89,-850.6 2037.89,4 -4,4"/>
<!-- 8 -->
<g id="node1" class="node">
<title>8</title>
<polygon fill="#f2f2f2" stroke="black" points="0,-137.9 0,-534.7 964.55,-534.7 964.55,-137.9 0,-137.9"/>
<text text-anchor="middle" x="482.28" y="-518.1" font-family="Courier New" font-size="14.00">SLYXToken &lt;&lt;Contract&gt;&gt;</text>
<polyline fill="none" stroke="black" points="0,-509.9 964.55,-509.9 "/>
<text text-anchor="middle" x="37.4" y="-493.3" font-family="Courier New" font-size="14.00">slot</text>
<polyline fill="none" stroke="black" points="0,-485.1 74.81,-485.1 "/>
<text text-anchor="middle" x="37.4" y="-468.5" font-family="Courier New" font-size="14.00">0</text>
<polyline fill="none" stroke="black" points="0,-460.3 74.81,-460.3 "/>
<text text-anchor="middle" x="37.4" y="-443.7" font-family="Courier New" font-size="14.00">1&#45;50</text>
<polyline fill="none" stroke="black" points="0,-435.5 74.81,-435.5 "/>
<text text-anchor="middle" x="37.4" y="-418.9" font-family="Courier New" font-size="14.00">51</text>
<polyline fill="none" stroke="black" points="0,-410.7 74.81,-410.7 "/>
<text text-anchor="middle" x="37.4" y="-394.1" font-family="Courier New" font-size="14.00">52&#45;100</text>
<polyline fill="none" stroke="black" points="0,-385.9 74.81,-385.9 "/>
<text text-anchor="middle" x="37.4" y="-369.3" font-family="Courier New" font-size="14.00">101&#45;150</text>
<polyline fill="none" stroke="black" points="0,-361.1 74.81,-361.1 "/>
<text text-anchor="middle" x="37.4" y="-344.5" font-family="Courier New" font-size="14.00">151</text>
<polyline fill="none" stroke="black" points="0,-336.3 74.81,-336.3 "/>
<text text-anchor="middle" x="37.4" y="-319.7" font-family="Courier New" font-size="14.00">152</text>
<polyline fill="none" stroke="black" points="0,-311.5 74.81,-311.5 "/>
<text text-anchor="middle" x="37.4" y="-294.9" font-family="Courier New" font-size="14.00">153</text>
<polyline fill="none" stroke="black" points="0,-286.7 74.81,-286.7 "/>
<text text-anchor="middle" x="37.4" y="-270.1" font-family="Courier New" font-size="14.00">154</text>
<polyline fill="none" stroke="black" points="0,-261.9 74.81,-261.9 "/>
<text text-anchor="middle" x="37.4" y="-245.3" font-family="Courier New" font-size="14.00">155</text>
<polyline fill="none" stroke="black" points="0,-237.1 74.81,-237.1 "/>
<text text-anchor="middle" x="37.4" y="-220.5" font-family="Courier New" font-size="14.00">156</text>
<polyline fill="none" stroke="black" points="0,-212.3 74.81,-212.3 "/>
<text text-anchor="middle" x="37.4" y="-195.7" font-family="Courier New" font-size="14.00">157</text>
<polyline fill="none" stroke="black" points="0,-187.5 74.81,-187.5 "/>
<text text-anchor="middle" x="37.4" y="-170.9" font-family="Courier New" font-size="14.00">158&#45;206</text>
<polyline fill="none" stroke="black" points="0,-162.7 74.81,-162.7 "/>
<text text-anchor="middle" x="37.4" y="-146.1" font-family="Courier New" font-size="14.00">207</text>
<polyline fill="none" stroke="black" points="74.81,-137.9 74.81,-509.9 "/>
<text text-anchor="middle" x="519.68" y="-493.3" font-family="Courier New" font-size="14.00">type: &lt;inherited contract&gt;.variable (bytes)</text>
<polyline fill="none" stroke="black" points="74.81,-485.1 964.55,-485.1 "/>
<text text-anchor="middle" x="164.02" y="-468.5" font-family="Courier New" font-size="14.00">unallocated (30)</text>
<polyline fill="none" stroke="black" points="253.23,-460.3 253.23,-485.1 "/>
<text text-anchor="middle" x="431.16" y="-468.5" font-family="Courier New" font-size="14.00">bool: Initializable._initializing (1)</text>
<polyline fill="none" stroke="black" points="609.08,-460.3 609.08,-485.1 "/>
<text text-anchor="middle" x="786.51" y="-468.5" font-family="Courier New" font-size="14.00">uint8: Initializable._initialized (1)</text>
<polyline fill="none" stroke="black" points="74.81,-460.3 964.55,-460.3 "/>
<text text-anchor="middle" x="519.64" y="-443.7" font-family="Courier New" font-size="14.00">uint256[50]: ContextUpgradeable.__gap (1600)</text>
<polyline fill="none" stroke="black" points="74.81,-435.5 964.55,-435.5 "/>
<text text-anchor="middle" x="248.52" y="-418.9" font-family="Courier New" font-size="14.00">unallocated (12)</text>
<polyline fill="none" stroke="black" points="422.23,-410.7 422.23,-435.5 "/>
<text text-anchor="middle" x="693.06" y="-418.9" font-family="Courier New" font-size="14.00">address: OwnableUpgradeable._owner (20)</text>
<polyline fill="none" stroke="black" points="74.81,-410.7 964.55,-410.7 "/>
<text text-anchor="middle" x="519.64" y="-394.1" font-family="Courier New" font-size="14.00">uint256[49]: OwnableUpgradeable.__gap (1568)</text>
<polyline fill="none" stroke="black" points="74.81,-385.9 964.55,-385.9 "/>
<text text-anchor="middle" x="519.44" y="-369.3" font-family="Courier New" font-size="14.00">uint256[50]: ERC165Upgradeable.__gap (1600)</text>
<polyline fill="none" stroke="black" points="74.81,-361.1 964.55,-361.1 "/>
<text text-anchor="middle" x="519.55" y="-344.5" font-family="Courier New" font-size="14.00">mapping(bytes32=&gt;bytes): ERC725YInitAbstract._store (32)</text>
<polyline fill="none" stroke="black" points="74.81,-336.3 964.55,-336.3 "/>
<text text-anchor="middle" x="217.02" y="-319.7" font-family="Courier New" font-size="14.00">unallocated (31)</text>
<polyline fill="none" stroke="black" points="359.23,-311.5 359.23,-336.3 "/>
<text text-anchor="middle" x="661.57" y="-319.7" font-family="Courier New" font-size="14.00">bool: LSP7DigitalAssetInitAbstract._isNonDivisible (1)</text>
<polyline fill="none" stroke="black" points="74.81,-311.5 964.55,-311.5 "/>
<text text-anchor="middle" x="519.45" y="-294.9" font-family="Courier New" font-size="14.00">uint256: LSP7DigitalAssetInitAbstract._existingTokens (32)</text>
<polyline fill="none" stroke="black" points="74.81,-286.7 964.55,-286.7 "/>
<text text-anchor="middle" x="519.36" y="-270.1" font-family="Courier New" font-size="14.00">mapping(address=&gt;uint256): LSP7DigitalAssetInitAbstract._tokenOwnerBalances (32)</text>
<polyline fill="none" stroke="black" points="74.81,-261.9 964.55,-261.9 "/>
<text text-anchor="middle" x="519.47" y="-245.3" font-family="Courier New" font-size="14.00">mapping(address=&gt;EnumerableSet.AddressSet): LSP7DigitalAssetInitAbstract._operators (32)</text>
<polyline fill="none" stroke="black" points="74.81,-237.1 964.55,-237.1 "/>
<text text-anchor="middle" x="519.68" y="-220.5" font-family="Courier New" font-size="14.00">mapping(address=&gt;mapping(address=&gt;uint256)): LSP7DigitalAssetInitAbstract._operatorAuthorizedAmount (32)</text>
<polyline fill="none" stroke="black" points="74.81,-212.3 964.55,-212.3 "/>
<text text-anchor="middle" x="253.02" y="-195.7" font-family="Courier New" font-size="14.00">unallocated (31)</text>
<polyline fill="none" stroke="black" points="431.23,-187.5 431.23,-212.3 "/>
<text text-anchor="middle" x="697.66" y="-195.7" font-family="Courier New" font-size="14.00">bool: PausableUpgradeable._paused (1)</text>
<polyline fill="none" stroke="black" points="74.81,-187.5 964.55,-187.5 "/>
<text text-anchor="middle" x="519.34" y="-170.9" font-family="Courier New" font-size="14.00">uint256[49]: PausableUpgradeable.__gap (1568)</text>
<polyline fill="none" stroke="black" points="74.81,-162.7 964.55,-162.7 "/>
<text text-anchor="middle" x="278.02" y="-146.1" font-family="Courier New" font-size="14.00">unallocated (12)</text>
<polyline fill="none" stroke="black" points="481.23,-137.9 481.23,-162.7 "/>
<text text-anchor="middle" x="722.75" y="-146.1" font-family="Courier New" font-size="14.00">IVault: stakingVault (20)</text>
</g>
<!-- 1 -->
<g id="node2" class="node">
<title>1</title>
<polygon fill="#f2f2f2" stroke="black" points="1012.75,-672.5 1012.75,-846.1 1263.99,-846.1 1263.99,-672.5 1012.75,-672.5"/>
<text text-anchor="middle" x="1138.37" y="-829.5" font-family="Courier New" font-size="14.00">uint256[50]: __gap &lt;&lt;Array&gt;&gt;</text>
<polyline fill="none" stroke="black" points="1012.75,-821.3 1263.99,-821.3 "/>
<text text-anchor="middle" x="1037.56" y="-804.7" font-family="Courier New" font-size="14.00">slot</text>
<polyline fill="none" stroke="black" points="1012.75,-796.5 1062.36,-796.5 "/>
<text text-anchor="middle" x="1037.56" y="-779.9" font-family="Courier New" font-size="14.00">1</text>
<polyline fill="none" stroke="black" points="1012.75,-771.7 1062.36,-771.7 "/>
<text text-anchor="middle" x="1037.56" y="-755.1" font-family="Courier New" font-size="14.00">2</text>
<polyline fill="none" stroke="black" points="1012.75,-746.9 1062.36,-746.9 "/>
<text text-anchor="middle" x="1037.56" y="-730.3" font-family="Courier New" font-size="14.00">3&#45;48</text>
<polyline fill="none" stroke="black" points="1012.75,-722.1 1062.36,-722.1 "/>
<text text-anchor="middle" x="1037.56" y="-705.5" font-family="Courier New" font-size="14.00">49</text>
<polyline fill="none" stroke="black" points="1012.75,-697.3 1062.36,-697.3 "/>
<text text-anchor="middle" x="1037.56" y="-680.7" font-family="Courier New" font-size="14.00">50</text>
<polyline fill="none" stroke="black" points="1062.36,-672.5 1062.36,-821.3 "/>
<text text-anchor="middle" x="1162.77" y="-804.7" font-family="Courier New" font-size="14.00">type: variable (bytes)</text>
<polyline fill="none" stroke="black" points="1062.36,-796.5 1263.19,-796.5 "/>
<text text-anchor="middle" x="1162.77" y="-779.9" font-family="Courier New" font-size="14.00">uint256 (32)</text>
<polyline fill="none" stroke="black" points="1062.36,-771.7 1263.19,-771.7 "/>
<text text-anchor="middle" x="1162.77" y="-755.1" font-family="Courier New" font-size="14.00">uint256 (32)</text>
<polyline fill="none" stroke="black" points="1062.36,-746.9 1263.19,-746.9 "/>
<text text-anchor="middle" x="1162.57" y="-730.3" font-family="Courier New" font-size="14.00">&#45;&#45;&#45;&#45; (1472)</text>
<polyline fill="none" stroke="black" points="1062.36,-722.1 1263.19,-722.1 "/>
<text text-anchor="middle" x="1162.77" y="-705.5" font-family="Courier New" font-size="14.00">uint256 (32)</text>
<polyline fill="none" stroke="black" points="1062.36,-697.3 1263.19,-697.3 "/>
<text text-anchor="middle" x="1162.77" y="-680.7" font-family="Courier New" font-size="14.00">uint256 (32)</text>
</g>
<!-- 8&#45;&gt;1 -->
<g id="edge1" class="edge">
<title>8:8&#45;&gt;1</title>
<path fill="none" stroke="black" d="M964.55,-448.3C1012.78,-448.3 974.92,-621.45 1000.55,-662.3 1002.33,-665.14 1004.23,-667.91 1006.23,-670.63"/>
<polygon fill="black" stroke="black" points="1003.57,-672.92 1012.51,-678.61 1009.07,-668.59 1003.57,-672.92"/>
</g>
<!-- 2 -->
<g id="node3" class="node">
<title>2</title>
<polygon fill="#f2f2f2" stroke="black" points="1008.95,-479.5 1008.95,-653.1 1267.79,-653.1 1267.79,-479.5 1008.95,-479.5"/>
<text text-anchor="middle" x="1138.37" y="-636.5" font-family="Courier New" font-size="14.00">uint256[49]: __gap &lt;&lt;Array&gt;&gt;</text>
<polyline fill="none" stroke="black" points="1008.95,-628.3 1267.79,-628.3 "/>
<text text-anchor="middle" x="1037.96" y="-611.7" font-family="Courier New" font-size="14.00">slot</text>
<polyline fill="none" stroke="black" points="1008.95,-603.5 1066.96,-603.5 "/>
<text text-anchor="middle" x="1037.96" y="-586.9" font-family="Courier New" font-size="14.00">52</text>
<polyline fill="none" stroke="black" points="1008.95,-578.7 1066.96,-578.7 "/>
<text text-anchor="middle" x="1037.96" y="-562.1" font-family="Courier New" font-size="14.00">53</text>
<polyline fill="none" stroke="black" points="1008.95,-553.9 1066.96,-553.9 "/>
<text text-anchor="middle" x="1037.96" y="-537.3" font-family="Courier New" font-size="14.00">54&#45;98</text>
<polyline fill="none" stroke="black" points="1008.95,-529.1 1066.96,-529.1 "/>
<text text-anchor="middle" x="1037.96" y="-512.5" font-family="Courier New" font-size="14.00">99</text>
<polyline fill="none" stroke="black" points="1008.95,-504.3 1066.96,-504.3 "/>
<text text-anchor="middle" x="1037.96" y="-487.7" font-family="Courier New" font-size="14.00">100</text>
<polyline fill="none" stroke="black" points="1066.96,-479.5 1066.96,-628.3 "/>
<text text-anchor="middle" x="1167.38" y="-611.7" font-family="Courier New" font-size="14.00">type: variable (bytes)</text>
<polyline fill="none" stroke="black" points="1066.96,-603.5 1267.79,-603.5 "/>
<text text-anchor="middle" x="1167.37" y="-586.9" font-family="Courier New" font-size="14.00">uint256 (32)</text>
<polyline fill="none" stroke="black" points="1066.96,-578.7 1267.79,-578.7 "/>
<text text-anchor="middle" x="1167.37" y="-562.1" font-family="Courier New" font-size="14.00">uint256 (32)</text>
<polyline fill="none" stroke="black" points="1066.96,-553.9 1267.79,-553.9 "/>
<text text-anchor="middle" x="1167.17" y="-537.3" font-family="Courier New" font-size="14.00">&#45;&#45;&#45;&#45; (1440)</text>
<polyline fill="none" stroke="black" points="1066.96,-529.1 1267.79,-529.1 "/>
<text text-anchor="middle" x="1167.37" y="-512.5" font-family="Courier New" font-size="14.00">uint256 (32)</text>
<polyline fill="none" stroke="black" points="1066.96,-504.3 1267.79,-504.3 "/>
<text text-anchor="middle" x="1167.37" y="-487.7" font-family="Courier New" font-size="14.00">uint256 (32)</text>
</g>
<!-- 8&#45;&gt;2 -->
<g id="edge2" class="edge">
<title>8:15&#45;&gt;2</title>
<path fill="none" stroke="black" d="M964.55,-398.3C999.93,-398.3 977.44,-442.51 1000.55,-469.3 1001.29,-470.15 1002.03,-471.01 1002.79,-471.85"/>
<polygon fill="black" stroke="black" points="1000.42,-474.44 1009.8,-479.37 1005.54,-469.67 1000.42,-474.44"/>
</g>
<!-- 3 -->
<g id="node4" class="node">
<title>3</title>
<polygon fill="#f2f2f2" stroke="black" points="1000.55,-286.5 1000.55,-460.1 1276.19,-460.1 1276.19,-286.5 1000.55,-286.5"/>
<text text-anchor="middle" x="1138.37" y="-443.5" font-family="Courier New" font-size="14.00">uint256[50]: __gap &lt;&lt;Array&gt;&gt;</text>
<polyline fill="none" stroke="black" points="1000.55,-435.3 1276.19,-435.3 "/>
<text text-anchor="middle" x="1037.96" y="-418.7" font-family="Courier New" font-size="14.00">slot</text>
<polyline fill="none" stroke="black" points="1000.55,-410.5 1075.36,-410.5 "/>
<text text-anchor="middle" x="1037.96" y="-393.9" font-family="Courier New" font-size="14.00">101</text>
<polyline fill="none" stroke="black" points="1000.55,-385.7 1075.36,-385.7 "/>
<text text-anchor="middle" x="1037.96" y="-369.1" font-family="Courier New" font-size="14.00">102</text>
<polyline fill="none" stroke="black" points="1000.55,-360.9 1075.36,-360.9 "/>
<text text-anchor="middle" x="1037.96" y="-344.3" font-family="Courier New" font-size="14.00">103&#45;148</text>
<polyline fill="none" stroke="black" points="1000.55,-336.1 1075.36,-336.1 "/>
<text text-anchor="middle" x="1037.96" y="-319.5" font-family="Courier New" font-size="14.00">149</text>
<polyline fill="none" stroke="black" points="1000.55,-311.3 1075.36,-311.3 "/>
<text text-anchor="middle" x="1037.96" y="-294.7" font-family="Courier New" font-size="14.00">150</text>
<polyline fill="none" stroke="black" points="1075.36,-286.5 1075.36,-435.3 "/>
<text text-anchor="middle" x="1175.78" y="-418.7" font-family="Courier New" font-size="14.00">type: variable (bytes)</text>
<polyline fill="none" stroke="black" points="1075.36,-410.5 1276.19,-410.5 "/>
<text text-anchor="middle" x="1175.77" y="-393.9" font-family="Courier New" font-size="14.00">uint256 (32)</text>
<polyline fill="none" stroke="black" points="1075.36,-385.7 1276.19,-385.7 "/>
<text text-anchor="middle" x="1175.77" y="-369.1" font-family="Courier New" font-size="14.00">uint256 (32)</text>
<polyline fill="none" stroke="black" points="1075.36,-360.9 1276.19,-360.9 "/>
<text text-anchor="middle" x="1175.57" y="-344.3" font-family="Courier New" font-size="14.00">&#45;&#45;&#45;&#45; (1472)</text>
<polyline fill="none" stroke="black" points="1075.36,-336.1 1276.19,-336.1 "/>
<text text-anchor="middle" x="1175.77" y="-319.5" font-family="Courier New" font-size="14.00">uint256 (32)</text>
<polyline fill="none" stroke="black" points="1075.36,-311.3 1276.19,-311.3 "/>
<text text-anchor="middle" x="1175.77" y="-294.7" font-family="Courier New" font-size="14.00">uint256 (32)</text>
</g>
<!-- 8&#45;&gt;3 -->
<g id="edge3" class="edge">
<title>8:21&#45;&gt;3</title>
<path fill="none" stroke="black" d="M964.55,-373.3C972.85,-373.3 981.38,-373.3 989.99,-373.3"/>
<polygon fill="black" stroke="black" points="990.12,-376.8 1000.12,-373.3 990.12,-369.8 990.12,-376.8"/>
</g>
<!-- 6 -->
<g id="node7" class="node">
<title>6</title>
<polygon fill="#f2f2f2" stroke="black" points="1004.75,-193.1 1004.75,-267.5 1271.99,-267.5 1271.99,-193.1 1004.75,-193.1"/>
<text text-anchor="middle" x="1138.37" y="-250.9" font-family="Courier New" font-size="14.00">AddressSet &lt;&lt;Struct&gt;&gt;</text>
<polyline fill="none" stroke="black" points="1004.75,-242.7 1271.99,-242.7 "/>
<text text-anchor="middle" x="1037.96" y="-226.1" font-family="Courier New" font-size="14.00">offset</text>
<polyline fill="none" stroke="black" points="1004.75,-217.9 1071.16,-217.9 "/>
<text text-anchor="middle" x="1037.96" y="-201.3" font-family="Courier New" font-size="14.00">0&#45;1</text>
<polyline fill="none" stroke="black" points="1071.16,-193.1 1071.16,-242.7 "/>
<text text-anchor="middle" x="1171.58" y="-226.1" font-family="Courier New" font-size="14.00">type: variable (bytes)</text>
<polyline fill="none" stroke="black" points="1071.16,-217.9 1271.99,-217.9 "/>
<text text-anchor="middle" x="1171.37" y="-201.3" font-family="Courier New" font-size="14.00">Set: _inner (64)</text>
</g>
<!-- 8&#45;&gt;6 -->
<g id="edge4" class="edge">
<title>8:30&#45;&gt;6</title>
<path fill="none" stroke="black" d="M964.55,-249.3C974.29,-249.3 984.31,-249 994.4,-248.47"/>
<polygon fill="black" stroke="black" points="994.72,-251.96 1004.5,-247.87 994.31,-244.97 994.72,-251.96"/>
</g>
<!-- 7 -->
<g id="node8" class="node">
<title>7</title>
<polygon fill="#f2f2f2" stroke="black" points="1000.55,-0.5 1000.55,-174.1 1276.19,-174.1 1276.19,-0.5 1000.55,-0.5"/>
<text text-anchor="middle" x="1138.37" y="-157.5" font-family="Courier New" font-size="14.00">uint256[49]: __gap &lt;&lt;Array&gt;&gt;</text>
<polyline fill="none" stroke="black" points="1000.55,-149.3 1276.19,-149.3 "/>
<text text-anchor="middle" x="1037.96" y="-132.7" font-family="Courier New" font-size="14.00">slot</text>
<polyline fill="none" stroke="black" points="1000.55,-124.5 1075.36,-124.5 "/>
<text text-anchor="middle" x="1037.96" y="-107.9" font-family="Courier New" font-size="14.00">158</text>
<polyline fill="none" stroke="black" points="1000.55,-99.7 1075.36,-99.7 "/>
<text text-anchor="middle" x="1037.96" y="-83.1" font-family="Courier New" font-size="14.00">159</text>
<polyline fill="none" stroke="black" points="1000.55,-74.9 1075.36,-74.9 "/>
<text text-anchor="middle" x="1037.96" y="-58.3" font-family="Courier New" font-size="14.00">160&#45;204</text>
<polyline fill="none" stroke="black" points="1000.55,-50.1 1075.36,-50.1 "/>
<text text-anchor="middle" x="1037.96" y="-33.5" font-family="Courier New" font-size="14.00">205</text>
<polyline fill="none" stroke="black" points="1000.55,-25.3 1075.36,-25.3 "/>
<text text-anchor="middle" x="1037.96" y="-8.7" font-family="Courier New" font-size="14.00">206</text>
<polyline fill="none" stroke="black" points="1075.36,-0.5 1075.36,-149.3 "/>
<text text-anchor="middle" x="1175.78" y="-132.7" font-family="Courier New" font-size="14.00">type: variable (bytes)</text>
<polyline fill="none" stroke="black" points="1075.36,-124.5 1276.19,-124.5 "/>
<text text-anchor="middle" x="1175.77" y="-107.9" font-family="Courier New" font-size="14.00">uint256 (32)</text>
<polyline fill="none" stroke="black" points="1075.36,-99.7 1276.19,-99.7 "/>
<text text-anchor="middle" x="1175.77" y="-83.1" font-family="Courier New" font-size="14.00">uint256 (32)</text>
<polyline fill="none" stroke="black" points="1075.36,-74.9 1276.19,-74.9 "/>
<text text-anchor="middle" x="1175.57" y="-58.3" font-family="Courier New" font-size="14.00">&#45;&#45;&#45;&#45; (1440)</text>
<polyline fill="none" stroke="black" points="1075.36,-50.1 1276.19,-50.1 "/>
<text text-anchor="middle" x="1175.77" y="-33.5" font-family="Courier New" font-size="14.00">uint256 (32)</text>
<polyline fill="none" stroke="black" points="1075.36,-25.3 1276.19,-25.3 "/>
<text text-anchor="middle" x="1175.77" y="-8.7" font-family="Courier New" font-size="14.00">uint256 (32)</text>
</g>
<!-- 8&#45;&gt;7 -->
<g id="edge5" class="edge">
<title>8:38&#45;&gt;7</title>
<path fill="none" stroke="black" d="M964.55,-175.3C973.14,-175.3 981.74,-174.43 990.25,-172.85"/>
<polygon fill="black" stroke="black" points="991.17,-176.23 1000.2,-170.69 989.69,-169.39 991.17,-176.23"/>
</g>
<!-- 4 -->
<g id="node5" class="node">
<title>4</title>
<polygon fill="#f2f2f2" stroke="black" points="1766.65,-156.1 1766.65,-230.5 2033.89,-230.5 2033.89,-156.1 1766.65,-156.1"/>
<text text-anchor="middle" x="1900.27" y="-213.9" font-family="Courier New" font-size="14.00">bytes32[]: _values &lt;&lt;Array&gt;&gt;</text>
<polyline fill="none" stroke="black" points="1766.65,-205.7 2033.89,-205.7 "/>
<text text-anchor="middle" x="1799.86" y="-189.1" font-family="Courier New" font-size="14.00">offset</text>
<polyline fill="none" stroke="black" points="1766.65,-180.9 1833.06,-180.9 "/>
<text text-anchor="middle" x="1799.86" y="-164.3" font-family="Courier New" font-size="14.00">0</text>
<polyline fill="none" stroke="black" points="1833.06,-156.1 1833.06,-205.7 "/>
<text text-anchor="middle" x="1933.48" y="-189.1" font-family="Courier New" font-size="14.00">type: variable (bytes)</text>
<polyline fill="none" stroke="black" points="1833.06,-180.9 2033.89,-180.9 "/>
<text text-anchor="middle" x="1933.47" y="-164.3" font-family="Courier New" font-size="14.00">bytes32 (32)</text>
</g>
<!-- 5 -->
<g id="node6" class="node">
<title>5</title>
<polygon fill="#f2f2f2" stroke="black" points="1312.19,-155.7 1312.19,-254.9 1730.65,-254.9 1730.65,-155.7 1312.19,-155.7"/>
<text text-anchor="middle" x="1521.42" y="-238.3" font-family="Courier New" font-size="14.00">Set &lt;&lt;Struct&gt;&gt;</text>
<polyline fill="none" stroke="black" points="1312.19,-230.1 1730.65,-230.1 "/>
<text text-anchor="middle" x="1345.4" y="-213.5" font-family="Courier New" font-size="14.00">offset</text>
<polyline fill="none" stroke="black" points="1312.19,-205.3 1378.6,-205.3 "/>
<text text-anchor="middle" x="1345.4" y="-188.7" font-family="Courier New" font-size="14.00">0</text>
<polyline fill="none" stroke="black" points="1312.19,-180.5 1378.6,-180.5 "/>
<text text-anchor="middle" x="1345.4" y="-163.9" font-family="Courier New" font-size="14.00">1</text>
<polyline fill="none" stroke="black" points="1378.6,-155.7 1378.6,-230.1 "/>
<text text-anchor="middle" x="1554.63" y="-213.5" font-family="Courier New" font-size="14.00">type: variable (bytes)</text>
<polyline fill="none" stroke="black" points="1378.6,-205.3 1730.65,-205.3 "/>
<text text-anchor="middle" x="1554.22" y="-188.7" font-family="Courier New" font-size="14.00">bytes32[]: _values (32)</text>
<polyline fill="none" stroke="black" points="1378.6,-180.5 1730.65,-180.5 "/>
<text text-anchor="middle" x="1554.63" y="-163.9" font-family="Courier New" font-size="14.00">mapping(bytes32=&gt;uint256): _indexes (32)</text>
</g>
<!-- 5&#45;&gt;4 -->
<g id="edge6" class="edge">
<title>5:27&#45;&gt;4</title>
<path fill="none" stroke="black" d="M1730.42,-193.3C1738.94,-193.3 1747.7,-193.3 1756.54,-193.3"/>
<polygon fill="black" stroke="black" points="1756.54,-196.8 1766.54,-193.3 1756.54,-189.8 1756.54,-196.8"/>
</g>
<!-- 6&#45;&gt;5 -->
<g id="edge7" class="edge">
<title>6:29&#45;&gt;5</title>
<path fill="none" stroke="black" d="M1272.37,-205.3C1282.06,-205.3 1291.96,-205.3 1301.97,-205.3"/>
<polygon fill="black" stroke="black" points="1302,-208.8 1312,-205.3 1302,-201.8 1302,-208.8"/>
</g>
</g>
</svg>
