<?xml version="1.0" encoding="UTF-8" standalone="no"?>
<!DOCTYPE svg PUBLIC "-//W3C//DTD SVG 1.1//EN"
 "http://www.w3.org/Graphics/SVG/1.1/DTD/svg11.dtd">
<!-- Generated by graphviz version 5.0.0 (20220707.1540)
 -->
<!-- Title: StorageDiagram Pages: 1 -->
<svg width="1492pt" height="747pt"
 viewBox="0.00 0.00 1491.82 747.40" xmlns="http://www.w3.org/2000/svg" xmlns:xlink="http://www.w3.org/1999/xlink">
<g id="graph0" class="graph" transform="scale(1 1) rotate(0) translate(4 743.4)">
<title>StorageDiagram</title>
<polygon fill="white" stroke="transparent" points="-4,4 -4,-743.4 1487.82,-743.4 1487.82,4 -4,4"/>
<!-- 4 -->
<g id="node1" class="node">
<title>4</title>
<polygon fill="#f2f2f2" stroke="black" points="0,-0.5 0,-595.7 1172.18,-595.7 1172.18,-0.5 0,-0.5"/>
<text text-anchor="middle" x="586.09" y="-579.1" font-family="Courier New" font-size="14.00">StakingverseVault &lt;&lt;Contract&gt;&gt;</text>
<polyline fill="none" stroke="black" points="0,-570.9 1172.18,-570.9 "/>
<text text-anchor="middle" x="37.4" y="-554.3" font-family="Courier New" font-size="14.00">slot</text>
<polyline fill="none" stroke="black" points="0,-546.1 74.81,-546.1 "/>
<text text-anchor="middle" x="37.4" y="-529.5" font-family="Courier New" font-size="14.00">0</text>
<polyline fill="none" stroke="black" points="0,-521.3 74.81,-521.3 "/>
<text text-anchor="middle" x="37.4" y="-504.7" font-family="Courier New" font-size="14.00">1</text>
<polyline fill="none" stroke="black" points="0,-496.5 74.81,-496.5 "/>
<text text-anchor="middle" x="37.4" y="-479.9" font-family="Courier New" font-size="14.00">2&#45;50</text>
<polyline fill="none" stroke="black" points="0,-471.7 74.81,-471.7 "/>
<text text-anchor="middle" x="37.4" y="-455.1" font-family="Courier New" font-size="14.00">51&#45;100</text>
<polyline fill="none" stroke="black" points="0,-446.9 74.81,-446.9 "/>
<text text-anchor="middle" x="37.4" y="-430.3" font-family="Courier New" font-size="14.00">101</text>
<polyline fill="none" stroke="black" points="0,-422.1 74.81,-422.1 "/>
<text text-anchor="middle" x="37.4" y="-405.5" font-family="Courier New" font-size="14.00">102&#45;150</text>
<polyline fill="none" stroke="black" points="0,-397.3 74.81,-397.3 "/>
<text text-anchor="middle" x="37.4" y="-380.7" font-family="Courier New" font-size="14.00">151</text>
<polyline fill="none" stroke="black" points="0,-372.5 74.81,-372.5 "/>
<text text-anchor="middle" x="37.4" y="-355.9" font-family="Courier New" font-size="14.00">152</text>
<polyline fill="none" stroke="black" points="0,-347.7 74.81,-347.7 "/>
<text text-anchor="middle" x="37.4" y="-331.1" font-family="Courier New" font-size="14.00">153</text>
<polyline fill="none" stroke="black" points="0,-322.9 74.81,-322.9 "/>
<text text-anchor="middle" x="37.4" y="-306.3" font-family="Courier New" font-size="14.00">154</text>
<polyline fill="none" stroke="black" points="0,-298.1 74.81,-298.1 "/>
<text text-anchor="middle" x="37.4" y="-281.5" font-family="Courier New" font-size="14.00">155</text>
<polyline fill="none" stroke="black" points="0,-273.3 74.81,-273.3 "/>
<text text-anchor="middle" x="37.4" y="-256.7" font-family="Courier New" font-size="14.00">156</text>
<polyline fill="none" stroke="black" points="0,-248.5 74.81,-248.5 "/>
<text text-anchor="middle" x="37.4" y="-231.9" font-family="Courier New" font-size="14.00">157</text>
<polyline fill="none" stroke="black" points="0,-223.7 74.81,-223.7 "/>
<text text-anchor="middle" x="37.4" y="-207.1" font-family="Courier New" font-size="14.00">158</text>
<polyline fill="none" stroke="black" points="0,-198.9 74.81,-198.9 "/>
<text text-anchor="middle" x="37.4" y="-182.3" font-family="Courier New" font-size="14.00">159</text>
<polyline fill="none" stroke="black" points="0,-174.1 74.81,-174.1 "/>
<text text-anchor="middle" x="37.4" y="-157.5" font-family="Courier New" font-size="14.00">160</text>
<polyline fill="none" stroke="black" points="0,-149.3 74.81,-149.3 "/>
<text text-anchor="middle" x="37.4" y="-132.7" font-family="Courier New" font-size="14.00">161</text>
<polyline fill="none" stroke="black" points="0,-124.5 74.81,-124.5 "/>
<text text-anchor="middle" x="37.4" y="-107.9" font-family="Courier New" font-size="14.00">162</text>
<polyline fill="none" stroke="black" points="0,-99.7 74.81,-99.7 "/>
<text text-anchor="middle" x="37.4" y="-83.1" font-family="Courier New" font-size="14.00">163</text>
<polyline fill="none" stroke="black" points="0,-74.9 74.81,-74.9 "/>
<text text-anchor="middle" x="37.4" y="-58.3" font-family="Courier New" font-size="14.00">164</text>
<polyline fill="none" stroke="black" points="0,-50.1 74.81,-50.1 "/>
<text text-anchor="middle" x="37.4" y="-33.5" font-family="Courier New" font-size="14.00">165</text>
<polyline fill="none" stroke="black" points="0,-25.3 74.81,-25.3 "/>
<text text-anchor="middle" x="37.4" y="-8.7" font-family="Courier New" font-size="14.00">166</text>
<polyline fill="none" stroke="black" points="74.81,-0.5 74.81,-570.9 "/>
<text text-anchor="middle" x="623.49" y="-554.3" font-family="Courier New" font-size="14.00">type: &lt;inherited contract&gt;.variable (bytes)</text>
<polyline fill="none" stroke="black" points="74.81,-546.1 1172.18,-546.1 "/>
<text text-anchor="middle" x="150.02" y="-529.5" font-family="Courier New" font-size="14.00">unallocated (10)</text>
<polyline fill="none" stroke="black" points="225.23,-521.3 225.23,-546.1 "/>
<text text-anchor="middle" x="388.66" y="-529.5" font-family="Courier New" font-size="14.00">bool: Initializable._initializing (1)</text>
<polyline fill="none" stroke="black" points="552.08,-521.3 552.08,-546.1 "/>
<text text-anchor="middle" x="715.51" y="-529.5" font-family="Courier New" font-size="14.00">uint8: Initializable._initialized (1)</text>
<polyline fill="none" stroke="black" points="878.93,-521.3 878.93,-546.1 "/>
<text text-anchor="middle" x="1025.56" y="-529.5" font-family="Courier New" font-size="14.00">address: OwnableUnset._owner (20)</text>
<polyline fill="none" stroke="black" points="74.81,-521.3 1172.18,-521.3 "/>
<text text-anchor="middle" x="623.44" y="-504.7" font-family="Courier New" font-size="14.00">uint256: ReentrancyGuardUpgradeable._status (32)</text>
<polyline fill="none" stroke="black" points="74.81,-496.5 1172.18,-496.5 "/>
<text text-anchor="middle" x="623.25" y="-479.9" font-family="Courier New" font-size="14.00">uint256[49]: ReentrancyGuardUpgradeable.__gap (1568)</text>
<polyline fill="none" stroke="black" points="74.81,-471.7 1172.18,-471.7 "/>
<text text-anchor="middle" x="623.14" y="-455.1" font-family="Courier New" font-size="14.00">uint256[50]: ContextUpgradeable.__gap (1600)</text>
<polyline fill="none" stroke="black" points="74.81,-446.9 1172.18,-446.9 "/>
<text text-anchor="middle" x="305.02" y="-430.3" font-family="Courier New" font-size="14.00">unallocated (31)</text>
<polyline fill="none" stroke="black" points="535.23,-422.1 535.23,-446.9 "/>
<text text-anchor="middle" x="853.66" y="-430.3" font-family="Courier New" font-size="14.00">bool: PausableUpgradeable._paused (1)</text>
<polyline fill="none" stroke="black" points="74.81,-422.1 1172.18,-422.1 "/>
<text text-anchor="middle" x="623.34" y="-405.5" font-family="Courier New" font-size="14.00">uint256[49]: PausableUpgradeable.__gap (1568)</text>
<polyline fill="none" stroke="black" points="74.81,-397.3 1172.18,-397.3 "/>
<text text-anchor="middle" x="623.03" y="-380.7" font-family="Courier New" font-size="14.00">uint256: depositLimit (32)</text>
<polyline fill="none" stroke="black" points="74.81,-372.5 1172.18,-372.5 "/>
<text text-anchor="middle" x="623.33" y="-355.9" font-family="Courier New" font-size="14.00">uint256: totalShares (32)</text>
<polyline fill="none" stroke="black" points="74.81,-347.7 1172.18,-347.7 "/>
<text text-anchor="middle" x="623.33" y="-331.1" font-family="Courier New" font-size="14.00">uint256: totalStaked (32)</text>
<polyline fill="none" stroke="black" points="74.81,-322.9 1172.18,-322.9 "/>
<text text-anchor="middle" x="623.23" y="-306.3" font-family="Courier New" font-size="14.00">uint256: totalUnstaked (32)</text>
<polyline fill="none" stroke="black" points="74.81,-298.1 1172.18,-298.1 "/>
<text text-anchor="middle" x="623.03" y="-281.5" font-family="Courier New" font-size="14.00">uint256: totalPendingWithdrawal (32)</text>
<polyline fill="none" stroke="black" points="74.81,-273.3 1172.18,-273.3 "/>
<text text-anchor="middle" x="623.14" y="-256.7" font-family="Courier New" font-size="14.00">uint256: totalValidatorsRegistered (32)</text>
<polyline fill="none" stroke="black" points="74.81,-248.5 1172.18,-248.5 "/>
<text text-anchor="middle" x="241.82" y="-231.9" font-family="Courier New" font-size="14.00">unallocated (8)</text>
<polyline fill="none" stroke="black" points="408.83,-223.7 408.83,-248.5 "/>
<text text-anchor="middle" x="622.55" y="-231.9" font-family="Courier New" font-size="14.00">address: feeRecipient (20)</text>
<polyline fill="none" stroke="black" points="836.27,-223.7 836.27,-248.5 "/>
<text text-anchor="middle" x="1003.78" y="-231.9" font-family="Courier New" font-size="14.00">uint32: fee (4)</text>
<polyline fill="none" stroke="black" points="74.81,-223.7 1172.18,-223.7 "/>
<text text-anchor="middle" x="623.43" y="-207.1" font-family="Courier New" font-size="14.00">uint256: totalFees (32)</text>
<polyline fill="none" stroke="black" points="74.81,-198.9 1172.18,-198.9 "/>
<text text-anchor="middle" x="219.52" y="-182.3" font-family="Courier New" font-size="14.00">unallocated (11)</text>
<polyline fill="none" stroke="black" points="364.23,-174.1 364.23,-198.9 "/>
<text text-anchor="middle" x="606.06" y="-182.3" font-family="Courier New" font-size="14.00">IDepositContract: _depositContract (20)</text>
<polyline fill="none" stroke="black" points="847.88,-174.1 847.88,-198.9 "/>
<text text-anchor="middle" x="1009.9" y="-182.3" font-family="Courier New" font-size="14.00">bool: restricted (1)</text>
<polyline fill="none" stroke="black" points="74.81,-174.1 1172.18,-174.1 "/>
<text text-anchor="middle" x="623.14" y="-157.5" font-family="Courier New" font-size="14.00">mapping(address=&gt;uint256): _shares (32)</text>
<polyline fill="none" stroke="black" points="74.81,-149.3 1172.18,-149.3 "/>
<text text-anchor="middle" x="623.23" y="-132.7" font-family="Courier New" font-size="14.00">mapping(address=&gt;bool): _oracles (32)</text>
<polyline fill="none" stroke="black" points="74.81,-124.5 1172.18,-124.5 "/>
<text text-anchor="middle" x="623.04" y="-107.9" font-family="Courier New" font-size="14.00">mapping(address=&gt;uint256): _pendingWithdrawals (32)</text>
<polyline fill="none" stroke="black" points="74.81,-99.7 1172.18,-99.7 "/>
<text text-anchor="middle" x="623.04" y="-83.1" font-family="Courier New" font-size="14.00">mapping(address=&gt;bool): _allowlisted (32)</text>
<polyline fill="none" stroke="black" points="74.81,-74.9 1172.18,-74.9 "/>
<text text-anchor="middle" x="623.24" y="-58.3" font-family="Courier New" font-size="14.00">mapping(bytes=&gt;bool): _registeredKeys (32)</text>
<polyline fill="none" stroke="black" points="74.81,-50.1 1172.18,-50.1 "/>
<text text-anchor="middle" x="623.43" y="-33.5" font-family="Courier New" font-size="14.00">uint256: totalClaimable (32)</text>
<polyline fill="none" stroke="black" points="74.81,-25.3 1172.18,-25.3 "/>
<text text-anchor="middle" x="336.52" y="-8.7" font-family="Courier New" font-size="14.00">unallocated (12)</text>
<polyline fill="none" stroke="black" points="598.23,-0.5 598.23,-25.3 "/>
<text text-anchor="middle" x="885.15" y="-8.7" font-family="Courier New" font-size="14.00">address: operator (20)</text>
</g>
<!-- 1 -->
<g id="node2" class="node">
<title>1</title>
<polygon fill="#f2f2f2" stroke="black" points="1220.38,-565.3 1220.38,-738.9 1471.62,-738.9 1471.62,-565.3 1220.38,-565.3"/>
<text text-anchor="middle" x="1346" y="-722.3" font-family="Courier New" font-size="14.00">uint256[49]: __gap &lt;&lt;Array&gt;&gt;</text>
<polyline fill="none" stroke="black" points="1220.38,-714.1 1471.62,-714.1 "/>
<text text-anchor="middle" x="1245.18" y="-697.5" font-family="Courier New" font-size="14.00">slot</text>
<polyline fill="none" stroke="black" points="1220.38,-689.3 1269.98,-689.3 "/>
<text text-anchor="middle" x="1245.18" y="-672.7" font-family="Courier New" font-size="14.00">2</text>
<polyline fill="none" stroke="black" points="1220.38,-664.5 1269.98,-664.5 "/>
<text text-anchor="middle" x="1245.18" y="-647.9" font-family="Courier New" font-size="14.00">3</text>
<polyline fill="none" stroke="black" points="1220.38,-639.7 1269.98,-639.7 "/>
<text text-anchor="middle" x="1245.18" y="-623.1" font-family="Courier New" font-size="14.00">4&#45;48</text>
<polyline fill="none" stroke="black" points="1220.38,-614.9 1269.98,-614.9 "/>
<text text-anchor="middle" x="1245.18" y="-598.3" font-family="Courier New" font-size="14.00">49</text>
<polyline fill="none" stroke="black" points="1220.38,-590.1 1269.98,-590.1 "/>
<text text-anchor="middle" x="1245.18" y="-573.5" font-family="Courier New" font-size="14.00">50</text>
<polyline fill="none" stroke="black" points="1269.98,-565.3 1269.98,-714.1 "/>
<text text-anchor="middle" x="1370.4" y="-697.5" font-family="Courier New" font-size="14.00">type: variable (bytes)</text>
<polyline fill="none" stroke="black" points="1269.98,-689.3 1470.81,-689.3 "/>
<text text-anchor="middle" x="1370.39" y="-672.7" font-family="Courier New" font-size="14.00">uint256 (32)</text>
<polyline fill="none" stroke="black" points="1269.98,-664.5 1470.81,-664.5 "/>
<text text-anchor="middle" x="1370.39" y="-647.9" font-family="Courier New" font-size="14.00">uint256 (32)</text>
<polyline fill="none" stroke="black" points="1269.98,-639.7 1470.81,-639.7 "/>
<text text-anchor="middle" x="1370.19" y="-623.1" font-family="Courier New" font-size="14.00">&#45;&#45;&#45;&#45; (1440)</text>
<polyline fill="none" stroke="black" points="1269.98,-614.9 1470.81,-614.9 "/>
<text text-anchor="middle" x="1370.39" y="-598.3" font-family="Courier New" font-size="14.00">uint256 (32)</text>
<polyline fill="none" stroke="black" points="1269.98,-590.1 1470.81,-590.1 "/>
<text text-anchor="middle" x="1370.39" y="-573.5" font-family="Courier New" font-size="14.00">uint256 (32)</text>
</g>
<!-- 4&#45;&gt;1 -->
<g id="edge1" class="edge">
<title>4:10&#45;&gt;1</title>
<path fill="none" stroke="black" d="M1172.18,-484.1C1207.56,-484.1 1185.07,-528.31 1208.18,-555.1 1209.84,-557.03 1211.55,-558.94 1213.3,-560.83"/>
<polygon fill="black" stroke="black" points="1210.79,-563.26 1220.25,-568.03 1215.82,-558.4 1210.79,-563.26"/>
</g>
<!-- 2 -->
<g id="node3" class="node">
<title>2</title>
<polygon fill="#f2f2f2" stroke="black" points="1216.58,-372.3 1216.58,-545.9 1475.42,-545.9 1475.42,-372.3 1216.58,-372.3"/>
<text text-anchor="middle" x="1346" y="-529.3" font-family="Courier New" font-size="14.00">uint256[50]: __gap &lt;&lt;Array&gt;&gt;</text>
<polyline fill="none" stroke="black" points="1216.58,-521.1 1475.42,-521.1 "/>
<text text-anchor="middle" x="1245.58" y="-504.5" font-family="Courier New" font-size="14.00">slot</text>
<polyline fill="none" stroke="black" points="1216.58,-496.3 1274.59,-496.3 "/>
<text text-anchor="middle" x="1245.58" y="-479.7" font-family="Courier New" font-size="14.00">51</text>
<polyline fill="none" stroke="black" points="1216.58,-471.5 1274.59,-471.5 "/>
<text text-anchor="middle" x="1245.58" y="-454.9" font-family="Courier New" font-size="14.00">52</text>
<polyline fill="none" stroke="black" points="1216.58,-446.7 1274.59,-446.7 "/>
<text text-anchor="middle" x="1245.58" y="-430.1" font-family="Courier New" font-size="14.00">53&#45;98</text>
<polyline fill="none" stroke="black" points="1216.58,-421.9 1274.59,-421.9 "/>
<text text-anchor="middle" x="1245.58" y="-405.3" font-family="Courier New" font-size="14.00">99</text>
<polyline fill="none" stroke="black" points="1216.58,-397.1 1274.59,-397.1 "/>
<text text-anchor="middle" x="1245.58" y="-380.5" font-family="Courier New" font-size="14.00">100</text>
<polyline fill="none" stroke="black" points="1274.59,-372.3 1274.59,-521.1 "/>
<text text-anchor="middle" x="1375" y="-504.5" font-family="Courier New" font-size="14.00">type: variable (bytes)</text>
<polyline fill="none" stroke="black" points="1274.59,-496.3 1475.42,-496.3 "/>
<text text-anchor="middle" x="1374.99" y="-479.7" font-family="Courier New" font-size="14.00">uint256 (32)</text>
<polyline fill="none" stroke="black" points="1274.59,-471.5 1475.42,-471.5 "/>
<text text-anchor="middle" x="1374.99" y="-454.9" font-family="Courier New" font-size="14.00">uint256 (32)</text>
<polyline fill="none" stroke="black" points="1274.59,-446.7 1475.42,-446.7 "/>
<text text-anchor="middle" x="1374.79" y="-430.1" font-family="Courier New" font-size="14.00">&#45;&#45;&#45;&#45; (1472)</text>
<polyline fill="none" stroke="black" points="1274.59,-421.9 1475.42,-421.9 "/>
<text text-anchor="middle" x="1374.99" y="-405.3" font-family="Courier New" font-size="14.00">uint256 (32)</text>
<polyline fill="none" stroke="black" points="1274.59,-397.1 1475.42,-397.1 "/>
<text text-anchor="middle" x="1374.99" y="-380.5" font-family="Courier New" font-size="14.00">uint256 (32)</text>
</g>
<!-- 4&#45;&gt;2 -->
<g id="edge2" class="edge">
<title>4:16&#45;&gt;2</title>
<path fill="none" stroke="black" d="M1172.09,-459.1C1183.12,-459.1 1194.54,-459.1 1206.02,-459.1"/>
<polygon fill="black" stroke="black" points="1206.11,-462.6 1216.11,-459.1 1206.11,-455.6 1206.11,-462.6"/>
</g>
<!-- 3 -->
<g id="node4" class="node">
<title>3</title>
<polygon fill="#f2f2f2" stroke="black" points="1208.18,-179.3 1208.18,-352.9 1483.82,-352.9 1483.82,-179.3 1208.18,-179.3"/>
<text text-anchor="middle" x="1346" y="-336.3" font-family="Courier New" font-size="14.00">uint256[49]: __gap &lt;&lt;Array&gt;&gt;</text>
<polyline fill="none" stroke="black" points="1208.18,-328.1 1483.82,-328.1 "/>
<text text-anchor="middle" x="1245.58" y="-311.5" font-family="Courier New" font-size="14.00">slot</text>
<polyline fill="none" stroke="black" points="1208.18,-303.3 1282.99,-303.3 "/>
<text text-anchor="middle" x="1245.58" y="-286.7" font-family="Courier New" font-size="14.00">102</text>
<polyline fill="none" stroke="black" points="1208.18,-278.5 1282.99,-278.5 "/>
<text text-anchor="middle" x="1245.58" y="-261.9" font-family="Courier New" font-size="14.00">103</text>
<polyline fill="none" stroke="black" points="1208.18,-253.7 1282.99,-253.7 "/>
<text text-anchor="middle" x="1245.58" y="-237.1" font-family="Courier New" font-size="14.00">104&#45;148</text>
<polyline fill="none" stroke="black" points="1208.18,-228.9 1282.99,-228.9 "/>
<text text-anchor="middle" x="1245.58" y="-212.3" font-family="Courier New" font-size="14.00">149</text>
<polyline fill="none" stroke="black" points="1208.18,-204.1 1282.99,-204.1 "/>
<text text-anchor="middle" x="1245.58" y="-187.5" font-family="Courier New" font-size="14.00">150</text>
<polyline fill="none" stroke="black" points="1282.99,-179.3 1282.99,-328.1 "/>
<text text-anchor="middle" x="1383.4" y="-311.5" font-family="Courier New" font-size="14.00">type: variable (bytes)</text>
<polyline fill="none" stroke="black" points="1282.99,-303.3 1483.82,-303.3 "/>
<text text-anchor="middle" x="1383.4" y="-286.7" font-family="Courier New" font-size="14.00">uint256 (32)</text>
<polyline fill="none" stroke="black" points="1282.99,-278.5 1483.82,-278.5 "/>
<text text-anchor="middle" x="1383.4" y="-261.9" font-family="Courier New" font-size="14.00">uint256 (32)</text>
<polyline fill="none" stroke="black" points="1282.99,-253.7 1483.82,-253.7 "/>
<text text-anchor="middle" x="1383.19" y="-237.1" font-family="Courier New" font-size="14.00">&#45;&#45;&#45;&#45; (1440)</text>
<polyline fill="none" stroke="black" points="1282.99,-228.9 1483.82,-228.9 "/>
<text text-anchor="middle" x="1383.4" y="-212.3" font-family="Courier New" font-size="14.00">uint256 (32)</text>
<polyline fill="none" stroke="black" points="1282.99,-204.1 1483.82,-204.1 "/>
<text text-anchor="middle" x="1383.4" y="-187.5" font-family="Courier New" font-size="14.00">uint256 (32)</text>
</g>
<!-- 4&#45;&gt;3 -->
<g id="edge3" class="edge">
<title>4:23&#45;&gt;3</title>
<path fill="none" stroke="black" d="M1172.18,-410.1C1198.49,-410.1 1189.23,-381.36 1208.18,-363.1 1209.26,-362.06 1210.35,-361.02 1211.46,-359.98"/>
<polygon fill="black" stroke="black" points="1213.87,-362.52 1218.89,-353.19 1209.15,-357.35 1213.87,-362.52"/>
</g>
</g>
</svg>
